<?xml version="1.0" standalone="no"?>
<!DOCTYPE svg PUBLIC "-//W3C//DTD SVG 20010904//EN"
 "http://www.w3.org/TR/2001/REC-SVG-20010904/DTD/svg10.dtd">
<svg version="1.0" xmlns="http://www.w3.org/2000/svg"
 width="512.000000pt" height="512.000000pt" viewBox="0 0 512.000000 512.000000"
 preserveAspectRatio="xMidYMid meet">
<metadata>
Created by potrace 1.11, written by Peter Selinger 2001-2013
</metadata>
<g transform="translate(0.000000,512.000000) scale(0.100000,-0.100000)"
fill="#000000" stroke="none">
<path d="M0 2560 l0 -2560 2560 0 2560 0 0 2560 0 2560 -2560 0 -2560 0 0
-2560z m2837 2057 c24 -25 34 -99 43 -312 6 -121 15 -256 21 -299 11 -81 42
-181 60 -192 12 -7 89 43 344 225 580 412 880 563 1152 578 91 5 105 4 135
-15 47 -29 59 -55 59 -122 1 -106 -62 -198 -171 -248 -50 -24 -70 -26 -240
-32 -205 -7 -213 -9 -382 -97 -150 -77 -537 -350 -761 -537 -71 -58 -71 -59 2
-213 69 -144 159 -271 276 -389 198 -200 396 -297 610 -297 52 0 100 5 112 12
35 18 54 66 62 155 9 94 22 124 90 198 115 125 267 152 352 62 22 -23 24 -34
24 -117 0 -78 -4 -100 -26 -147 -112 -237 -485 -439 -886 -479 -438 -44 -801
191 -1039 673 -35 72 -64 136 -64 143 0 7 -6 13 -12 13 -13 0 -348 -258 -498
-384 -140 -117 -270 -237 -270 -249 0 -6 14 -25 30 -42 18 -19 33 -47 37 -69
6 -37 4 -40 -83 -125 -95 -91 -250 -207 -550 -410 -176 -119 -183 -123 -250
-131 -38 -5 -98 -20 -134 -35 -155 -65 -296 -84 -351 -47 -48 32 -59 49 -59
92 0 38 6 47 87 132 176 182 608 545 1268 1064 106 83 658 509 672 519 2 1
-17 56 -42 123 -25 67 -68 208 -95 314 -28 105 -61 211 -75 234 -15 26 -47 56
-85 80 l-60 39 0 53 c0 48 2 54 33 72 17 11 82 36 142 56 130 43 237 91 297
132 24 17 57 32 74 35 44 7 137 -3 151 -16z m-1392 -3202 c53 -26 92 -66 345
-359 118 -137 272 -315 343 -396 70 -81 127 -151 127 -154 0 -3 -81 -6 -179
-6 l-179 0 -109 120 -108 120 -276 -3 -277 -2 25 29 c13 16 59 67 100 113 l76
83 69 0 c37 0 68 4 68 9 0 14 -131 151 -144 151 -16 0 -92 -79 -356 -370
l-223 -245 -186 -5 c-102 -3 -187 -4 -189 -4 -5 3 761 858 787 879 14 11 46
30 71 43 56 28 153 27 215 -3z m1268 -442 c-3 -258 -6 -469 -7 -470 -1 -1 -65
-3 -141 -4 l-140 -1 -3 471 -2 471 150 0 149 0 -6 -467z m1592 443 c160 -42
266 -110 311 -201 24 -50 26 -64 22 -135 -5 -86 -25 -127 -90 -189 -29 -28
-140 -88 -190 -105 -10 -3 -18 -9 -18 -13 1 -4 88 -66 195 -138 107 -71 195
-132 195 -135 0 -3 -100 -3 -222 0 l-223 5 -175 118 -175 117 -202 0 c-236 0
-216 -12 -211 130 l3 85 340 5 c320 5 343 6 386 26 96 44 117 108 56 169 -51
51 -89 55 -551 55 l-413 0 -7 -77 c-3 -42 -6 -201 -6 -354 l0 -278 -139 -3
-138 -3 -7 80 c-3 44 -6 257 -6 473 l0 393 598 -4 c534 -3 604 -5 667 -21z"/>
</g>
</svg>
